<?xml version="1.0" encoding="utf-8"?>
<!-- Generator: Adobe Illustrator 17.0.0, SVG Export Plug-In . SVG Version: 6.00 Build 0)  -->
<!DOCTYPE svg PUBLIC "-//W3C//DTD SVG 1.0//EN" "http://www.w3.org/TR/2001/REC-SVG-20010904/DTD/svg10.dtd">
<svg version="1.0" id="Capa_1" xmlns="http://www.w3.org/2000/svg" xmlns:xlink="http://www.w3.org/1999/xlink"
	 width="595" height="300" viewBox="0 0 595 150" fill="none">
<g>
	<rect x="61.333" y="11.358" fill="none" width="596" height="379"/>
	<path fill="#2E855A" d="M73.124,81.009c0-2.161,0.345-4.968,1.035-8.42c0.689-3.452,1.589-7.175,2.7-11.167c1.11-3.992,2.385-8.075,3.825-12.249
		c1.44-4.172,2.91-8.09,4.41-11.753c1.5-3.662,2.97-6.874,4.41-9.636c1.44-2.76,2.729-4.74,3.87-5.941
		c0.599,0.061,1.395,0.286,2.385,0.675c0.99,0.391,1.994,0.855,3.015,1.395c1.02,0.54,1.949,1.125,2.79,1.755
		c0.839,0.63,1.379,1.215,1.62,1.755c-1.741,1.56-3.465,3.914-5.175,7.061c-1.71,3.147-3.361,6.73-4.95,10.747
		c-1.59,4.018-3.076,8.26-4.455,12.727c-1.381,4.467-2.581,8.8-3.6,12.997c-1.021,4.197-1.815,8.096-2.385,11.693
		c-0.571,3.596-0.855,6.504-0.855,8.723c0,1.019,0.09,1.648,0.27,1.889c-1.321,0-2.281-0.195-2.88-0.585
		c-0.6-0.392-1.066-0.812-1.395-1.261c-0.33-0.45-0.63-0.901-0.9-1.35c-0.27-0.451-0.675-0.797-1.215-1.037
		c-0.42-0.18-0.781-0.6-1.08-1.26c-0.301-0.662-0.556-1.398-0.765-2.207c-0.211-0.81-0.375-1.637-0.495-2.478
		C73.183,82.239,73.124,81.549,73.124,81.009z"/>
	<path fill="#2E855A" d="M100.842,54.288c0-1.08,0.074-2.1,0.225-3.06c0.149-0.959,0.464-1.785,0.945-2.475c0.479-0.689,1.139-1.229,1.98-1.62
		c0.839-0.389,1.949-0.585,3.33-0.585c0.839,0,1.784,0.09,2.835,0.27c1.049,0.18,1.814,0.511,2.295,0.99
		c-0.241,1.021-0.436,1.921-0.585,2.7c-0.15,0.781-0.27,1.636-0.36,2.565c-0.09,0.931-0.166,2.041-0.225,3.33
		c-0.061,1.291-0.121,2.956-0.18,4.995c-0.121,4.081-0.315,7.726-0.585,10.935c-0.27,3.21-0.886,6.405-1.845,9.585
		c0,0.24,0.09,0.36,0.27,0.36c0.9-0.659,1.92-1.62,3.06-2.88c1.139-1.26,2.34-2.685,3.6-4.275c1.26-1.589,2.52-3.285,3.78-5.085
		c1.26-1.8,2.43-3.569,3.51-5.31c1.44-2.52,3.029-5.67,4.77-9.45c1.74-3.78,3.18-7.83,4.32-12.15c0.36,0,0.824,0.076,1.395,0.225
		c0.57,0.15,1.139,0.331,1.71,0.54c0.57,0.211,1.08,0.436,1.53,0.675c0.45,0.241,0.765,0.45,0.945,0.63
		c-0.121,2.581-0.735,5.22-1.845,7.92c-1.111,2.7-2.446,5.31-4.005,7.83c-1.561,2.52-3.21,4.891-4.95,7.11
		c-1.741,2.22-3.33,4.14-4.77,5.76c-2.88,3.361-5.775,6.36-8.685,9c-2.911,2.641-6.376,5.189-10.395,7.65
		c-1.561-0.6-2.79-1.395-3.69-2.385c-0.9-0.99-1.35-2.025-1.35-3.105c0-0.72,0.165-1.544,0.495-2.475
		c0.329-0.93,0.705-2.129,1.125-3.6c0.419-1.469,0.794-3.314,1.125-5.535c0.329-2.219,0.495-5.04,0.495-8.46
		c0-1.98-0.045-3.974-0.135-5.985C100.887,56.913,100.842,55.368,100.842,54.288z"/>
	<path fill="#2E855A" d="M167.262,49.788c0.599,0,1.305,0.105,2.115,0.315c0.81,0.211,1.544,0.481,2.205,0.81c0.66,0.331,1.215,0.675,1.665,1.035
		c0.45,0.36,0.675,0.69,0.675,0.99c-1.201,2.52-2.311,5.056-3.33,7.605c-1.021,2.551-1.89,4.995-2.61,7.335s-1.275,4.531-1.665,6.57
		c-0.391,2.041-0.585,3.811-0.585,5.31c0,1.681,0.18,3.076,0.54,4.185c0.36,1.111,0.959,1.906,1.8,2.385
		c-0.72,0.479-1.651,0.869-2.79,1.17c-1.14,0.299-2.16,0.45-3.06,0.45c-3.24,0-4.86-2.219-4.86-6.66c0-3.42,1.139-8.1,3.42-14.04
		c-1.201,2.748-2.58,5.333-4.14,7.751c-1.561,2.42-3.15,4.557-4.77,6.409c-1.62,1.852-3.255,3.361-4.905,4.525
		c-1.651,1.163-3.166,1.866-4.545,2.105c-2.22,0-4.021-1.01-5.4-3.028c-1.381-2.018-2.07-4.594-2.07-7.728
		c0-3.374,0.72-6.928,2.16-10.664c1.44-3.735,3.285-7.2,5.535-10.394c2.25-3.193,4.694-5.86,7.335-7.999
		c2.64-2.139,5.189-3.209,7.65-3.209c0.599,0.18,1.274,0.54,2.025,1.079c0.75,0.539,1.47,1.167,2.16,1.884
		c0.689,0.719,1.274,1.451,1.755,2.199c0.479,0.748,0.75,1.392,0.81,1.931c-2.4,0.36-4.875,1.527-7.425,3.502
		c-2.551,1.976-4.86,4.355-6.93,7.138c-2.07,2.784-3.766,5.761-5.085,8.934c-1.32,3.172-1.98,6.136-1.98,8.889
		c0,1.138,0.419,1.856,1.26,2.154c1.739-0.36,3.749-1.845,6.03-4.455c2.279-2.61,5.04-6.645,8.28-12.105
		c0.599-1.08,1.274-2.28,2.025-3.6c0.75-1.319,1.514-2.7,2.295-4.14c0.779-1.44,1.544-2.894,2.295-4.365
		C165.896,52.593,166.601,51.168,167.262,49.788z M177.702,20.538c0.599,0.36,1.215,0.945,1.845,1.755s1.2,1.71,1.71,2.7
		c0.509,0.99,0.914,1.995,1.215,3.015c0.299,1.021,0.45,1.951,0.45,2.79c-2.281,1.561-4.275,2.851-5.985,3.87
		c-1.71,1.021-3.24,1.845-4.59,2.475c-1.35,0.63-2.536,1.08-3.555,1.35c-1.021,0.27-2.011,0.405-2.97,0.405
		c-1.921,0-3.57-0.569-4.95-1.71c1.319-0.479,2.7-1.229,4.14-2.25c1.44-1.02,2.894-2.25,4.365-3.69c1.47-1.44,2.91-3.06,4.32-4.86
		C175.106,24.587,176.442,22.638,177.702,20.538z"/>
	<path fill="#2E855A" d="M193.091,42.498c1.56,0.481,3.029,1.545,4.41,3.195c1.379,1.651,2.399,3.465,3.06,5.445c-0.661,1.62-1.68,3.57-3.06,5.85
		c-1.381,2.281-2.761,4.605-4.14,6.975c-1.381,2.371-2.625,4.621-3.735,6.75c-1.111,2.13-1.755,3.886-1.935,5.265
		c0.959-1.02,2.025-2.205,3.195-3.555s2.309-2.7,3.42-4.05c1.11-1.35,2.145-2.579,3.105-3.69c0.959-1.11,1.71-1.935,2.25-2.475
		c1.139-1.2,2.489-2.595,4.05-4.185c1.56-1.589,3.195-3.089,4.905-4.5c1.71-1.409,3.434-2.61,5.175-3.6
		c1.74-0.99,3.33-1.485,4.77-1.485c1.56,0,2.865,0.526,3.915,1.575c1.049,1.05,1.875,2.146,2.475,3.285
		c0,0.121-0.225,0.286-0.675,0.495c-0.45,0.211-1.096,0.796-1.935,1.755c-0.841,1.08-1.786,2.565-2.835,4.455
		c-1.051,1.89-2.07,3.931-3.06,6.12c-0.99,2.191-1.815,4.425-2.475,6.705c-0.661,2.281-0.99,4.351-0.99,6.21
		c0,1.5,0.194,2.461,0.585,2.88c0.389,0.42,0.945,0.63,1.665,0.63c0.659,0,1.35-0.149,2.07-0.45c0.72-0.3,1.29-0.45,1.71-0.45
		c0.239,0.121,0.435,0.375,0.585,0.765c0.149,0.391,0.225,0.735,0.225,1.035c-0.481,0.421-1.05,0.841-1.71,1.26
		c-0.661,0.42-1.35,0.81-2.07,1.17c-0.72,0.36-1.426,0.66-2.115,0.9c-0.69,0.239-1.305,0.36-1.845,0.36
		c-1.741,0-3.165-0.256-4.275-0.765c-1.111-0.509-1.98-1.184-2.61-2.025c-0.63-0.84-1.066-1.845-1.305-3.015
		c-0.24-1.17-0.36-2.415-0.36-3.735c0-0.72,0.059-1.53,0.18-2.43c0.119-0.9,0.36-1.964,0.72-3.195c0.36-1.229,0.869-2.7,1.53-4.41
		c0.659-1.71,1.499-3.765,2.52-6.165c-0.121,0-0.931,0.42-2.43,1.26c-1.5,0.841-3.121,2.131-4.86,3.87
		c-2.821,2.7-5.355,5.371-7.605,8.01c-2.25,2.641-4.545,5.58-6.885,8.82c-1.32,1.86-2.475,3.434-3.465,4.725
		c-0.99,1.29-1.845,2.145-2.565,2.565c-1.26-0.72-2.191-1.726-2.79-3.015c-0.601-1.291-1.051-2.624-1.35-4.005
		c0-1.139,0.165-2.579,0.495-4.32c0.329-1.74,0.779-3.675,1.35-5.805c0.569-2.129,1.274-4.365,2.115-6.705
		c0.839-2.34,1.769-4.68,2.79-7.02c2.279-5.279,4.365-9.419,6.255-12.42C191.426,44.358,192.61,42.738,193.091,42.498z"/>
	<path fill="#2E855A" d="M328.989,25.487c0.18,1.021,0.314,1.726,0.404,2.115c0.091,0.391,0.136,0.916,0.136,1.575c0,1.98-0.437,3.825-1.306,5.535
		c-0.87,1.71-2.056,2.925-3.555,3.645c-1.201-1.62-2.671-3.015-4.41-4.185c-1.741-1.17-3.645-2.129-5.715-2.88
		c-2.07-0.75-4.216-1.305-6.435-1.665c-2.221-0.36-4.381-0.54-6.48-0.54c-2.101,0-4.065,0.166-5.895,0.495
		c-1.831,0.331-3.451,0.78-4.86,1.35c-1.41,0.571-2.52,1.275-3.33,2.115c-0.81,0.841-1.215,1.8-1.215,2.88
		c0.18,1.321,0.99,2.655,2.43,4.005c1.44,1.35,3.209,2.67,5.31,3.96c2.1,1.291,4.424,2.565,6.975,3.825
		c2.55,1.26,5.054,2.461,7.515,3.6c3.061,1.44,5.7,2.776,7.92,4.005c2.22,1.23,4.051,2.581,5.49,4.05
		c1.44,1.471,2.521,3.136,3.24,4.995c0.72,1.86,1.08,4.11,1.08,6.75c0,3.06-0.511,5.926-1.53,8.595
		c-1.021,2.67-2.506,4.995-4.455,6.975c-1.95,1.98-4.306,3.524-7.064,4.635c-2.761,1.11-5.851,1.665-9.271,1.665
		c-3.36,0-6.99-0.51-10.89-1.53c-3.901-1.021-7.546-2.416-10.935-4.185c-3.39-1.769-6.21-3.81-8.46-6.12
		c-2.25-2.309-3.375-4.754-3.375-7.335c0-1.199,0.345-2.729,1.035-4.59c0.689-1.859,1.935-3.81,3.735-5.85
		c0.18,1.8,1.155,3.931,2.925,6.39c1.769,2.461,4.424,4.74,7.965,6.84c3.299,1.921,6.705,3.316,10.215,4.185
		c3.51,0.871,6.794,1.305,9.855,1.305c3.359,0,6.089-0.419,8.189-1.26c2.1-0.839,3.75-1.845,4.95-3.015
		c1.2-1.17,2.039-2.354,2.521-3.555c0.479-1.2,0.749-2.16,0.81-2.88c-0.061-1.2-0.616-2.354-1.665-3.465
		c-1.05-1.109-2.461-2.189-4.229-3.24c-1.771-1.049-3.825-2.115-6.165-3.195s-4.771-2.16-7.29-3.24
		c-3.78-1.679-7.036-3.254-9.765-4.725c-2.731-1.47-4.981-2.97-6.75-4.5c-1.771-1.53-3.06-3.135-3.87-4.815
		c-0.81-1.679-1.215-3.6-1.215-5.76c0-3.359,1.02-6.539,3.06-9.54c2.039-3,4.979-5.279,8.82-6.84c1.919-0.839,3.974-1.44,6.164-1.8
		c2.19-0.36,4.335-0.54,6.436-0.54c3.96,0,7.83,0.54,11.61,1.62C321.429,22.427,325.209,23.809,328.989,25.487z"/>
	<path fill="#2E855A" d="M364.179,49.788c0.599,0,1.305,0.105,2.115,0.315c0.81,0.211,1.544,0.481,2.205,0.81c0.659,0.331,1.215,0.675,1.665,1.035
		c0.449,0.36,0.675,0.69,0.675,0.99c-1.201,2.52-2.311,5.056-3.33,7.605c-1.021,2.551-1.89,4.995-2.61,7.335
		c-0.72,2.34-1.275,4.531-1.665,6.57c-0.391,2.041-0.585,3.811-0.585,5.31c0,1.681,0.181,3.076,0.54,4.185
		c0.36,1.111,0.959,1.906,1.8,2.385c-0.72,0.479-1.65,0.869-2.79,1.17c-1.14,0.299-2.159,0.45-3.06,0.45
		c-3.24,0-4.86-2.219-4.86-6.66c0-3.42,1.14-8.1,3.42-14.04c-1.2,2.748-2.58,5.333-4.14,7.751c-1.561,2.42-3.15,4.557-4.77,6.409
		c-1.62,1.852-3.256,3.361-4.905,4.525c-1.651,1.163-3.166,1.866-4.545,2.105c-2.221,0-4.021-1.01-5.4-3.028
		c-1.381-2.018-2.069-4.594-2.069-7.728c0-3.374,0.72-6.928,2.159-10.664c1.44-3.735,3.285-7.2,5.535-10.394
		c2.25-3.193,4.694-5.86,7.335-7.999c2.64-2.139,5.189-3.209,7.65-3.209c0.599,0.18,1.273,0.54,2.024,1.079
		c0.75,0.539,1.47,1.167,2.16,1.884c0.689,0.719,1.274,1.451,1.755,2.199c0.479,0.748,0.75,1.392,0.811,1.931
		c-2.4,0.36-4.876,1.527-7.425,3.502c-2.552,1.976-4.86,4.355-6.931,7.138c-2.069,2.784-3.766,5.761-5.085,8.934
		c-1.32,3.172-1.979,6.136-1.979,8.889c0,1.138,0.419,1.856,1.26,2.154c1.739-0.36,3.749-1.845,6.03-4.455
		c2.279-2.61,5.04-6.645,8.279-12.105c0.6-1.08,1.274-2.28,2.025-3.6c0.75-1.319,1.515-2.7,2.295-4.14
		c0.779-1.44,1.544-2.894,2.295-4.365C362.813,52.593,363.518,51.168,364.179,49.788z"/>
	<path fill="#2E855A" d="M390.007,42.498c1.56,0.481,3.029,1.545,4.41,3.195c1.38,1.651,2.399,3.465,3.061,5.445c-0.661,1.62-1.681,3.57-3.061,5.85
		c-1.381,2.281-2.76,4.605-4.14,6.975c-1.381,2.371-2.626,4.621-3.735,6.75c-1.11,2.13-1.755,3.886-1.935,5.265
		c0.959-1.02,2.024-2.205,3.195-3.555c1.17-1.35,2.309-2.7,3.42-4.05c1.109-1.35,2.145-2.579,3.104-3.69
		c0.959-1.11,1.71-1.935,2.25-2.475c1.14-1.2,2.489-2.595,4.05-4.185c1.56-1.589,3.195-3.089,4.905-4.5
		c1.71-1.409,3.435-2.61,5.175-3.6c1.74-0.99,3.33-1.485,4.771-1.485c1.56,0,2.864,0.526,3.915,1.575
		c1.049,1.05,1.874,2.146,2.475,3.285c0,0.121-0.225,0.286-0.675,0.495c-0.45,0.211-1.096,0.796-1.936,1.755
		c-0.841,1.08-1.785,2.565-2.835,4.455s-2.069,3.931-3.06,6.12c-0.99,2.191-1.815,4.425-2.475,6.705
		c-0.661,2.281-0.99,4.351-0.99,6.21c0,1.5,0.194,2.461,0.585,2.88c0.39,0.42,0.945,0.63,1.665,0.63c0.659,0,1.35-0.149,2.069-0.45
		c0.721-0.3,1.29-0.45,1.711-0.45c0.238,0.121,0.434,0.375,0.585,0.765c0.148,0.391,0.225,0.735,0.225,1.035
		c-0.481,0.421-1.051,0.841-1.71,1.26c-0.661,0.42-1.35,0.81-2.07,1.17c-0.72,0.36-1.426,0.66-2.115,0.9
		c-0.69,0.239-1.305,0.36-1.845,0.36c-1.741,0-3.165-0.256-4.274-0.765c-1.111-0.509-1.98-1.184-2.61-2.025
		c-0.63-0.84-1.066-1.845-1.305-3.015c-0.241-1.17-0.36-2.415-0.36-3.735c0-0.72,0.059-1.53,0.18-2.43
		c0.12-0.9,0.36-1.964,0.721-3.195c0.359-1.229,0.869-2.7,1.529-4.41s1.499-3.765,2.521-6.165c-0.121,0-0.931,0.42-2.431,1.26
		c-1.5,0.841-3.12,2.131-4.859,3.87c-2.821,2.7-5.355,5.371-7.605,8.01c-2.25,2.641-4.545,5.58-6.885,8.82
		c-1.32,1.86-2.475,3.434-3.465,4.725c-0.99,1.29-1.845,2.145-2.564,2.565c-1.261-0.72-2.191-1.726-2.79-3.015
		c-0.601-1.291-1.051-2.624-1.351-4.005c0-1.139,0.165-2.579,0.495-4.32c0.329-1.74,0.779-3.675,1.351-5.805
		c0.569-2.129,1.273-4.365,2.114-6.705c0.84-2.34,1.77-4.68,2.79-7.02c2.279-5.279,4.365-9.419,6.255-12.42
		C388.342,44.358,389.526,42.738,390.007,42.498z"/>
	<path fill="#2E855A" d="M429.337,51.677c-0.301-0.36-0.571-1.125-0.81-2.295c-0.241-1.17-0.36-2.174-0.36-3.015c1.56,0.24,3.06,0.36,4.5,0.36
		c1.439,0,2.759,0,3.96,0c0.9-1.779,1.874-3.544,2.925-5.294c1.049-1.75,2.07-3.351,3.061-4.805c0.989-1.453,1.919-2.683,2.79-3.693
		c0.868-1.008,1.544-1.661,2.024-1.958c0.6,0,1.364,0.105,2.295,0.315c0.93,0.211,1.875,0.481,2.835,0.81
		c0.959,0.331,1.83,0.675,2.61,1.035c0.779,0.36,1.319,0.72,1.62,1.08c-1.8,2.264-3.346,4.365-4.635,6.302
		c-1.291,1.938-2.687,4.157-4.186,6.658c1.199,0,2.415,0,3.646,0c1.229,0,2.475-0.09,3.734-0.27c0.3,0.301,0.54,0.675,0.72,1.125
		c0.181,0.45,0.271,0.916,0.271,1.395c-2.94,1.141-6.511,1.71-10.71,1.71c-1.501,2.888-2.835,5.76-4.005,8.617
		s-2.16,5.609-2.97,8.256c-0.811,2.646-1.44,5.144-1.891,7.49c-0.45,2.345-0.675,4.451-0.675,6.315c0,2.646,0.99,4.12,2.97,4.421
		c1.8-0.239,3.51-0.689,5.13-1.35c1.62-0.66,3.061-1.5,4.32-2.52c0.36,0.54,0.569,0.99,0.63,1.35
		c-0.359,0.538-0.976,1.163-1.845,1.877c-0.87,0.714-1.815,1.415-2.835,2.101c-1.021,0.684-2.011,1.264-2.97,1.742
		c-0.961,0.476-1.681,0.744-2.16,0.805c-1.501,0-3.001-0.301-4.5-0.9c-1.501-0.602-2.866-1.353-4.096-2.252
		c-1.23-0.903-2.235-1.909-3.015-3.02c-0.78-1.111-1.17-2.208-1.17-3.289c0-1.441,0.194-3.258,0.585-5.451
		c0.39-2.192,0.945-4.58,1.665-7.164c0.72-2.583,1.56-5.286,2.52-8.11s2.01-5.616,3.15-8.38H429.337z"/>
	<path fill="#2E855A" d="M466.325,89.297c-3.42-0.36-6.15-1.86-8.189-4.5c-2.041-2.64-3.061-5.999-3.061-10.08c0-2.399,0.36-4.889,1.08-7.47
		c0.721-2.579,1.74-5.085,3.061-7.515c1.318-2.43,2.88-4.725,4.68-6.885c1.8-2.16,3.749-4.019,5.85-5.58
		c3.3-2.459,6.391-3.69,9.271-3.69c1.92,1.021,3.81,3.15,5.67,6.39c0.3,0,0.569-0.014,0.81-0.045
		c0.239-0.029,0.51-0.045,0.811-0.045c3.18,0,4.77,2.821,4.77,8.46c0,3.78-0.615,7.366-1.845,10.755
		c-1.23,3.391-2.94,6.466-5.13,9.225c-2.191,2.761-4.801,5.085-7.83,6.975C473.24,87.183,469.926,88.517,466.325,89.297z
		 M470.916,60.947c-1.021,1.381-1.98,2.88-2.881,4.5c-0.899,1.62-1.68,3.256-2.34,4.905c-0.661,1.651-1.17,3.24-1.529,4.77
		c-0.36,1.53-0.54,2.896-0.54,4.095c0,1.44,0.238,2.821,0.72,4.14c0.479,1.32,1.02,2.07,1.62,2.25
		c2.7-0.599,5.175-1.724,7.425-3.375c2.25-1.649,4.199-3.704,5.85-6.165c1.649-2.459,2.939-5.25,3.87-8.37
		c0.93-3.119,1.396-6.449,1.396-9.99c0-1.56-0.09-2.79-0.271-3.69c-0.18-0.9-0.48-1.679-0.899-2.34
		c-2.642,0.781-4.995,2.041-7.065,3.78C474.2,57.198,472.415,59.028,470.916,60.947z"/>
	<path fill="#2E855A" d="M526.445,50.192c-0.061,1.141-0.256,2.326-0.585,3.555c-0.331,1.23-0.735,2.34-1.215,3.33
		c-0.481,0.99-0.99,1.815-1.53,2.475c-0.54,0.661-1.051,0.99-1.53,0.99c-0.661-0.059-1.051-0.509-1.17-1.35
		c0-0.18,0.074-0.464,0.225-0.855c0.149-0.39,0.315-0.824,0.495-1.305c0.181-0.479,0.345-0.959,0.495-1.44
		c0.149-0.479,0.226-0.9,0.226-1.26c0-0.839-0.196-1.544-0.585-2.115c-0.392-0.569-0.916-0.855-1.575-0.855
		c-2.4,0-4.23,1.494-5.49,4.479s-1.89,7.375-1.89,13.167c0,0.598,0.029,0.956,0.09,1.074c1.26,0,2.385,0,3.375,0s1.964,0,2.925,0
		c0.059,0.12,0.09,0.358,0.09,0.716c0,0.539-0.121,0.927-0.36,1.164c-1.381,0.3-2.475,0.554-3.284,0.762
		c-0.811,0.21-1.427,0.404-1.846,0.583c-0.42,0.18-0.675,0.374-0.765,0.582c-0.09,0.209-0.135,0.494-0.135,0.851
		c0,0.479,0.014,0.955,0.045,1.433c0.029,0.478,0.045,1.074,0.045,1.79c0,5.016-1.365,9.051-4.095,12.106
		c-2.731,3.055-6.525,4.822-11.386,5.303c-0.841-0.061-1.71-0.301-2.609-0.72c-0.9-0.42-1.755-0.96-2.565-1.62
		c-0.81-0.661-1.516-1.395-2.115-2.205s-1.021-1.636-1.26-2.475c0-2.298,0.479-4.489,1.44-6.576
		c0.959-2.085,2.264-3.929,3.915-5.532c1.649-1.603,3.6-2.902,5.85-3.901c2.25-0.997,4.694-1.496,7.335-1.496
		c0-1.506-0.15-2.983-0.45-4.429c-0.301-1.445-0.615-2.848-0.944-4.203c-0.331-1.355-0.646-2.682-0.945-3.978
		c-0.301-1.295-0.45-2.577-0.45-3.842c0-1.625,0.329-3.237,0.99-4.834c0.659-1.598,1.53-3.074,2.61-4.43s2.34-2.514,3.779-3.479
		c1.44-0.965,2.939-1.627,4.5-1.99c0.66,0.18,1.544,0.706,2.655,1.575c1.109,0.871,2.205,1.845,3.285,2.925s2.039,2.175,2.88,3.285
		C525.755,48.559,526.265,49.473,526.445,50.192z M496.745,91.232c1.439-0.601,2.804-1.471,4.095-2.61
		c1.29-1.141,2.415-2.43,3.375-3.87c0.959-1.44,1.725-2.97,2.295-4.59c0.569-1.62,0.855-3.209,0.855-4.77
		c-1.201,0.18-2.521,0.735-3.96,1.665c-1.44,0.931-2.79,2.041-4.05,3.33c-1.261,1.291-2.311,2.625-3.15,4.005
		c-0.841,1.381-1.26,2.579-1.26,3.6C494.945,89.312,495.544,90.392,496.745,91.232z"/>
</g>
<g>
	<g>
		<g>
			<path fill="#2E855A" d="M38.867,62.32l15.692-15.692c0.257-0.257,0.399-0.598,0.399-0.958s-0.141-0.707-0.399-0.958l-4.564-4.564
				c-0.527-0.527-1.389-0.527-1.922,0L26.858,61.362c-0.257,0.257-0.399,0.598-0.399,0.958s0.141,0.707,0.399,0.958l21.221,21.215
				c0.257,0.257,0.598,0.399,0.958,0.399s0.707-0.141,0.958-0.399l4.564-4.564c0.527-0.527,0.527-1.389,0-1.922L38.867,62.32z"/>
		</g>
	</g>
</g>
<path fill="#2E855A" d="M571.025,61.684L549.81,40.469c-0.534-0.527-1.389-0.527-1.922,0l-4.564,4.564
	c-0.257,0.257-0.399,0.598-0.399,0.958c0,0.36,0.141,0.707,0.399,0.958l15.686,15.692l-15.686,15.692
	c-0.257,0.257-0.399,0.598-0.399,0.958c0,0.36,0.141,0.707,0.399,0.958l4.571,4.564c0.264,0.264,0.611,0.399,0.958,0.399
	c0.347,0,0.694-0.135,0.958-0.399L571.025,63.6C571.558,63.072,571.558,62.211,571.025,61.684z"/>
<g>
</g>
<g>
</g>
<g>
</g>
<g>
</g>
<g>
</g>
<g>
</g>
</svg>
